# xmcd CD database file
#
# Track frame offsets:
#	150
#	17820
#	41687
#	59847
#	78432
#	93822
#	126087
#	141905
#	159055
#	174117
#	190932
#	207137
#	223720
#	243962
#	262040
#	292300
#
# Disc length: 4440 seconds
#
# Revision: 0
# Processed by: cddbd v1.5.1PL2 Copyright (c) Steve Scherf et al.
# Submitted via: CDex 1.51
#
DISCID=e6115610
DTITLE=brownsuger - SOUL ESSENTIALS 7
DYEAR=2004
DGENRE=R&B
TTITLE0=Be With You
TTITLE1=So Hot
TTITLE2=THAT'S HOW WE'RE LIVIN'
TTITLE3=Get It Started
TTITLE4=RAIN ON MY WINDOW PANE
TTITLE5=Make This A Special Night(Long Version)
TTITLE6=Queen Of Me
TTITLE7=TAKE A LOOK AT ME
TTITLE8=Kinda Shy
TTITLE9=I've Got To Know
TTITLE10=Why U Gotta Lie
TTITLE11=Don't I Know You(ORIGINAL DEMO MIX)
TTITLE12=All In The Way
TTITLE13=Don't Tell Me
TTITLE14=Show Me
TTITLE15=Date 16
EXTD=YEAR: 2004
EXTT0=
EXTT1=
EXTT2=
EXTT3=
EXTT4=
EXTT5=
EXTT6=
EXTT7=
EXTT8=
EXTT9=
EXTT10=
EXTT11=
EXTT12=
EXTT13=
EXTT14=
EXTT15=
PLAYORDER=
